<svg xmlns="http://www.w3.org/2000/svg" xmlns:xlink="http://www.w3.org/1999/xlink" width="150" zoomAndPan="magnify" viewBox="0 0 112.5 74.999997" height="100" preserveAspectRatio="xMidYMid meet" version="1.0"><defs><g/><clipPath id="d99e135d31"><path d="M 71 33 L 84 33 L 84 45 L 71 45 Z M 71 33 " clip-rule="nonzero"/></clipPath><clipPath id="b6f70e5fa7"><path d="M 71.300781 46.277344 L 69.75 33.8125 L 83.066406 32.15625 L 84.617188 44.621094 Z M 71.300781 46.277344 " clip-rule="nonzero"/></clipPath><clipPath id="d6ac06da06"><path d="M 71.300781 46.277344 L 69.75 33.8125 L 83.066406 32.15625 L 84.617188 44.621094 Z M 71.300781 46.277344 " clip-rule="nonzero"/></clipPath><clipPath id="e398b912ba"><path d="M 72 33 L 84 33 L 84 42 L 72 42 Z M 72 33 " clip-rule="nonzero"/></clipPath><clipPath id="942428c210"><path d="M 71.300781 46.277344 L 69.75 33.8125 L 83.066406 32.15625 L 84.617188 44.621094 Z M 71.300781 46.277344 " clip-rule="nonzero"/></clipPath><clipPath id="daa21336b6"><path d="M 71.300781 46.277344 L 69.75 33.8125 L 83.066406 32.15625 L 84.617188 44.621094 Z M 71.300781 46.277344 " clip-rule="nonzero"/></clipPath><clipPath id="15964b10fc"><path d="M 73.921875 42.605469 L 72.777344 33.425781 L 82.824219 32.175781 L 83.964844 41.355469 Z M 73.921875 42.605469 " clip-rule="nonzero"/></clipPath><clipPath id="723d63e5df"><path d="M 73.921875 42.605469 L 72.78125 33.4375 L 82.808594 32.1875 L 83.949219 41.355469 Z M 73.921875 42.605469 " clip-rule="nonzero"/></clipPath><clipPath id="53e155c14c"><path d="M 72 35 L 83 35 L 83 44 L 72 44 Z M 72 35 " clip-rule="nonzero"/></clipPath><clipPath id="2039f815d3"><path d="M 71.300781 46.277344 L 69.75 33.8125 L 83.066406 32.15625 L 84.617188 44.621094 Z M 71.300781 46.277344 " clip-rule="nonzero"/></clipPath><clipPath id="d2dc79ab3c"><path d="M 71.300781 46.277344 L 69.75 33.8125 L 83.066406 32.15625 L 84.617188 44.621094 Z M 71.300781 46.277344 " clip-rule="nonzero"/></clipPath><clipPath id="07d2c57112"><path d="M 71 32.003906 L 83 32.003906 L 83 45 L 71 45 Z M 71 32.003906 " clip-rule="nonzero"/></clipPath><clipPath id="af20a523f3"><path d="M 74.261719 35.058594 L 83.5 35.058594 L 83.5 45.164062 L 74.261719 45.164062 Z M 74.261719 35.058594 " clip-rule="nonzero"/></clipPath></defs><g fill="#ff0000" fill-opacity="1"><g transform="translate(2.614405, 43.647862)"><g><path d="M 10.367188 -13.191406 L 1.226562 -13.191406 C 1.054688 -13.191406 0.941406 -13.082031 0.941406 -12.910156 L 0.941406 -12.117188 C 0.941406 -11.949219 1.054688 -11.835938 1.226562 -11.835938 L 5.0625 -11.835938 L 5.0625 -0.28125 C 5.0625 -0.113281 5.171875 0 5.34375 0 L 6.246094 0 C 6.417969 0 6.53125 -0.113281 6.53125 -0.28125 L 6.53125 -11.835938 L 10.367188 -11.835938 C 10.535156 -11.835938 10.648438 -11.949219 10.648438 -12.117188 L 10.648438 -12.910156 C 10.648438 -13.082031 10.535156 -13.191406 10.367188 -13.191406 Z M 10.367188 -13.191406 "/></g></g></g><g fill="#00ffff" fill-opacity="1"><g transform="translate(3.058744, 43.593305)"><g><path d="M 10.367188 -13.191406 L 1.226562 -13.191406 C 1.054688 -13.191406 0.941406 -13.082031 0.941406 -12.910156 L 0.941406 -12.117188 C 0.941406 -11.949219 1.054688 -11.835938 1.226562 -11.835938 L 5.0625 -11.835938 L 5.0625 -0.28125 C 5.0625 -0.113281 5.171875 0 5.34375 0 L 6.246094 0 C 6.417969 0 6.53125 -0.113281 6.53125 -0.28125 L 6.53125 -11.835938 L 10.367188 -11.835938 C 10.535156 -11.835938 10.648438 -11.949219 10.648438 -12.117188 L 10.648438 -12.910156 C 10.648438 -13.082031 10.535156 -13.191406 10.367188 -13.191406 Z M 10.367188 -13.191406 "/></g></g></g><g fill="#ffffff" fill-opacity="1"><g transform="translate(2.836574, 43.620583)"><g><path d="M 10.367188 -13.191406 L 1.226562 -13.191406 C 1.054688 -13.191406 0.941406 -13.082031 0.941406 -12.910156 L 0.941406 -12.117188 C 0.941406 -11.949219 1.054688 -11.835938 1.226562 -11.835938 L 5.0625 -11.835938 L 5.0625 -0.28125 C 5.0625 -0.113281 5.171875 0 5.34375 0 L 6.246094 0 C 6.417969 0 6.53125 -0.113281 6.53125 -0.28125 L 6.53125 -11.835938 L 10.367188 -11.835938 C 10.535156 -11.835938 10.648438 -11.949219 10.648438 -12.117188 L 10.648438 -12.910156 C 10.648438 -13.082031 10.535156 -13.191406 10.367188 -13.191406 Z M 10.367188 -13.191406 "/></g></g></g><g fill="#ff0000" fill-opacity="1"><g transform="translate(16.219873, 43.647862)"><g><path d="M 5.816406 -9.441406 C 3.101562 -9.441406 1.214844 -7.3125 1.214844 -4.597656 C 1.214844 -1.882812 3.101562 0.246094 5.964844 0.246094 C 7.398438 0.246094 8.546875 -0.265625 9.453125 -1.167969 C 9.601562 -1.320312 9.582031 -1.453125 9.433594 -1.601562 L 9.054688 -1.980469 C 8.933594 -2.101562 8.8125 -2.074219 8.679688 -1.960938 C 8.058594 -1.414062 7.265625 -0.980469 6.117188 -0.980469 C 4.15625 -0.980469 2.816406 -2.234375 2.601562 -3.976562 L 9.640625 -3.976562 C 10.113281 -3.976562 10.1875 -4.277344 10.1875 -4.917969 C 10.1875 -7.292969 8.546875 -9.441406 5.816406 -9.441406 Z M 5.816406 -8.199219 C 7.605469 -8.199219 8.859375 -6.851562 8.941406 -5.125 L 2.601562 -5.125 C 2.800781 -6.898438 4.0625 -8.199219 5.816406 -8.199219 Z M 5.816406 -8.199219 "/></g></g></g><g fill="#00ffff" fill-opacity="1"><g transform="translate(16.664212, 43.593305)"><g><path d="M 5.816406 -9.441406 C 3.101562 -9.441406 1.214844 -7.3125 1.214844 -4.597656 C 1.214844 -1.882812 3.101562 0.246094 5.964844 0.246094 C 7.398438 0.246094 8.546875 -0.265625 9.453125 -1.167969 C 9.601562 -1.320312 9.582031 -1.453125 9.433594 -1.601562 L 9.054688 -1.980469 C 8.933594 -2.101562 8.8125 -2.074219 8.679688 -1.960938 C 8.058594 -1.414062 7.265625 -0.980469 6.117188 -0.980469 C 4.15625 -0.980469 2.816406 -2.234375 2.601562 -3.976562 L 9.640625 -3.976562 C 10.113281 -3.976562 10.1875 -4.277344 10.1875 -4.917969 C 10.1875 -7.292969 8.546875 -9.441406 5.816406 -9.441406 Z M 5.816406 -8.199219 C 7.605469 -8.199219 8.859375 -6.851562 8.941406 -5.125 L 2.601562 -5.125 C 2.800781 -6.898438 4.0625 -8.199219 5.816406 -8.199219 Z M 5.816406 -8.199219 "/></g></g></g><g fill="#8c52ff" fill-opacity="1"><g transform="translate(16.442042, 43.620583)"><g><path d="M 5.816406 -9.441406 C 3.101562 -9.441406 1.214844 -7.3125 1.214844 -4.597656 C 1.214844 -1.882812 3.101562 0.246094 5.964844 0.246094 C 7.398438 0.246094 8.546875 -0.265625 9.453125 -1.167969 C 9.601562 -1.320312 9.582031 -1.453125 9.433594 -1.601562 L 9.054688 -1.980469 C 8.933594 -2.101562 8.8125 -2.074219 8.679688 -1.960938 C 8.058594 -1.414062 7.265625 -0.980469 6.117188 -0.980469 C 4.15625 -0.980469 2.816406 -2.234375 2.601562 -3.976562 L 9.640625 -3.976562 C 10.113281 -3.976562 10.1875 -4.277344 10.1875 -4.917969 C 10.1875 -7.292969 8.546875 -9.441406 5.816406 -9.441406 Z M 5.816406 -8.199219 C 7.605469 -8.199219 8.859375 -6.851562 8.941406 -5.125 L 2.601562 -5.125 C 2.800781 -6.898438 4.0625 -8.199219 5.816406 -8.199219 Z M 5.816406 -8.199219 "/></g></g></g><g fill="#ff0000" fill-opacity="1"><g transform="translate(29.82534, 43.647862)"><g><path d="M 6.265625 -1.035156 C 4.289062 -1.035156 2.816406 -2.507812 2.816406 -4.597656 C 2.816406 -6.691406 4.289062 -8.160156 6.265625 -8.160156 C 7.472656 -8.160156 8.453125 -7.632812 9.101562 -6.765625 C 9.214844 -6.617188 9.328125 -6.605469 9.480469 -6.699219 L 10.082031 -7.058594 C 10.234375 -7.152344 10.273438 -7.292969 10.167969 -7.445312 C 9.328125 -8.679688 7.925781 -9.441406 6.246094 -9.441406 C 3.476562 -9.441406 1.460938 -7.351562 1.460938 -4.597656 C 1.460938 -1.847656 3.476562 0.246094 6.246094 0.246094 C 7.925781 0.246094 9.328125 -0.519531 10.167969 -1.753906 C 10.273438 -1.902344 10.234375 -2.046875 10.082031 -2.140625 L 9.480469 -2.496094 C 9.328125 -2.589844 9.214844 -2.582031 9.101562 -2.429688 C 8.453125 -1.5625 7.472656 -1.035156 6.265625 -1.035156 Z M 6.265625 -1.035156 "/></g></g></g><g fill="#ff0000" fill-opacity="1"><g transform="translate(43.431155, 43.647862)"><g><path d="M 6.578125 -9.441406 C 4.929688 -9.441406 3.761719 -8.558594 3.230469 -7.652344 L 3.0625 -7.652344 L 3.0625 -12.910156 C 3.0625 -13.082031 2.949219 -13.191406 2.78125 -13.191406 L 1.933594 -13.191406 C 1.761719 -13.191406 1.648438 -13.082031 1.648438 -12.910156 L 1.648438 -0.28125 C 1.648438 -0.113281 1.761719 0 1.933594 0 L 2.78125 0 C 2.949219 0 3.0625 -0.113281 3.0625 -0.28125 L 3.0625 -6.078125 C 3.214844 -6.617188 4.230469 -8.152344 6.164062 -8.152344 C 7.738281 -8.152344 8.546875 -7.3125 8.546875 -5.671875 L 8.546875 -0.28125 C 8.546875 -0.113281 8.660156 0 8.828125 0 L 9.679688 0 C 9.847656 0 9.960938 -0.113281 9.960938 -0.28125 L 9.960938 -5.765625 C 9.960938 -8.238281 8.660156 -9.441406 6.578125 -9.441406 Z M 6.578125 -9.441406 "/></g></g></g><g fill="#ff0000" fill-opacity="1"><g transform="translate(57.03697, 43.647862)"><g><path d="M 5.984375 -1.128906 C 3.875 -1.128906 2.761719 -1.722656 2.761719 -5.992188 L 2.761719 -7.105469 C 2.761719 -11.375 3.875 -11.96875 5.984375 -11.96875 C 7.773438 -11.96875 8.6875 -11.648438 8.933594 -10.082031 C 8.960938 -9.914062 9.101562 -9.839844 9.253906 -9.839844 L 10.121094 -9.839844 C 10.308594 -9.839844 10.394531 -9.953125 10.367188 -10.160156 C 9.988281 -12.570312 8.667969 -13.382812 5.976562 -13.382812 C 2.742188 -13.382812 1.320312 -12.089844 1.320312 -7.105469 L 1.320312 -5.992188 C 1.320312 -1.007812 2.742188 0.28125 5.976562 0.28125 C 8.667969 0.28125 9.988281 -0.527344 10.367188 -2.941406 C 10.394531 -3.148438 10.308594 -3.261719 10.121094 -3.261719 L 9.253906 -3.261719 C 9.101562 -3.261719 8.960938 -3.183594 8.933594 -3.015625 C 8.6875 -1.453125 7.773438 -1.128906 5.984375 -1.128906 Z M 5.984375 -1.128906 "/></g></g></g><g fill="#ff0000" fill-opacity="1"><g transform="translate(70.642785, 43.647862)"><g/></g></g><g fill="#ff0000" fill-opacity="1"><g transform="translate(84.248601, 43.647862)"><g><path d="M 10.035156 -13.191406 L 9.1875 -13.191406 C 9.019531 -13.191406 8.90625 -13.082031 8.90625 -12.910156 L 8.90625 -7.613281 L 8.753906 -7.613281 C 8.265625 -8.613281 7.226562 -9.441406 5.53125 -9.441406 C 2.78125 -9.441406 1.082031 -7.371094 1.082031 -4.597656 C 1.082031 -1.828125 2.875 0.246094 5.53125 0.246094 C 7.066406 0.246094 8.179688 -0.40625 8.894531 -1.375 L 8.980469 -0.28125 C 9 -0.113281 9.09375 0 9.261719 0 L 10.035156 0 C 10.207031 0 10.320312 -0.113281 10.320312 -0.28125 L 10.320312 -12.910156 C 10.320312 -13.082031 10.207031 -13.191406 10.035156 -13.191406 Z M 5.757812 -1.035156 C 3.683594 -1.035156 2.441406 -2.527344 2.441406 -4.617188 C 2.441406 -6.710938 3.683594 -8.160156 5.757812 -8.160156 C 7.738281 -8.160156 9.019531 -6.710938 9.019531 -4.617188 C 9.019531 -2.527344 7.738281 -1.035156 5.757812 -1.035156 Z M 5.757812 -1.035156 "/></g></g></g><g fill="#ff0000" fill-opacity="1"><g transform="translate(97.854418, 43.647862)"><g><path d="M 5.816406 -9.441406 C 3.101562 -9.441406 1.214844 -7.3125 1.214844 -4.597656 C 1.214844 -1.882812 3.101562 0.246094 5.964844 0.246094 C 7.398438 0.246094 8.546875 -0.265625 9.453125 -1.167969 C 9.601562 -1.320312 9.582031 -1.453125 9.433594 -1.601562 L 9.054688 -1.980469 C 8.933594 -2.101562 8.8125 -2.074219 8.679688 -1.960938 C 8.058594 -1.414062 7.265625 -0.980469 6.117188 -0.980469 C 4.15625 -0.980469 2.816406 -2.234375 2.601562 -3.976562 L 9.640625 -3.976562 C 10.113281 -3.976562 10.1875 -4.277344 10.1875 -4.917969 C 10.1875 -7.292969 8.546875 -9.441406 5.816406 -9.441406 Z M 5.816406 -8.199219 C 7.605469 -8.199219 8.859375 -6.851562 8.941406 -5.125 L 2.601562 -5.125 C 2.800781 -6.898438 4.0625 -8.199219 5.816406 -8.199219 Z M 5.816406 -8.199219 "/></g></g></g><g fill="#00ffff" fill-opacity="1"><g transform="translate(30.26968, 43.593305)"><g><path d="M 6.265625 -1.035156 C 4.289062 -1.035156 2.816406 -2.507812 2.816406 -4.597656 C 2.816406 -6.691406 4.289062 -8.160156 6.265625 -8.160156 C 7.472656 -8.160156 8.453125 -7.632812 9.101562 -6.765625 C 9.214844 -6.617188 9.328125 -6.605469 9.480469 -6.699219 L 10.082031 -7.058594 C 10.234375 -7.152344 10.273438 -7.292969 10.167969 -7.445312 C 9.328125 -8.679688 7.925781 -9.441406 6.246094 -9.441406 C 3.476562 -9.441406 1.460938 -7.351562 1.460938 -4.597656 C 1.460938 -1.847656 3.476562 0.246094 6.246094 0.246094 C 7.925781 0.246094 9.328125 -0.519531 10.167969 -1.753906 C 10.273438 -1.902344 10.234375 -2.046875 10.082031 -2.140625 L 9.480469 -2.496094 C 9.328125 -2.589844 9.214844 -2.582031 9.101562 -2.429688 C 8.453125 -1.5625 7.472656 -1.035156 6.265625 -1.035156 Z M 6.265625 -1.035156 "/></g></g></g><g fill="#00ffff" fill-opacity="1"><g transform="translate(43.875495, 43.593305)"><g><path d="M 6.578125 -9.441406 C 4.929688 -9.441406 3.761719 -8.558594 3.230469 -7.652344 L 3.0625 -7.652344 L 3.0625 -12.910156 C 3.0625 -13.082031 2.949219 -13.191406 2.78125 -13.191406 L 1.933594 -13.191406 C 1.761719 -13.191406 1.648438 -13.082031 1.648438 -12.910156 L 1.648438 -0.28125 C 1.648438 -0.113281 1.761719 0 1.933594 0 L 2.78125 0 C 2.949219 0 3.0625 -0.113281 3.0625 -0.28125 L 3.0625 -6.078125 C 3.214844 -6.617188 4.230469 -8.152344 6.164062 -8.152344 C 7.738281 -8.152344 8.546875 -7.3125 8.546875 -5.671875 L 8.546875 -0.28125 C 8.546875 -0.113281 8.660156 0 8.828125 0 L 9.679688 0 C 9.847656 0 9.960938 -0.113281 9.960938 -0.28125 L 9.960938 -5.765625 C 9.960938 -8.238281 8.660156 -9.441406 6.578125 -9.441406 Z M 6.578125 -9.441406 "/></g></g></g><g fill="#00ffff" fill-opacity="1"><g transform="translate(57.48131, 43.593305)"><g><path d="M 5.984375 -1.128906 C 3.875 -1.128906 2.761719 -1.722656 2.761719 -5.992188 L 2.761719 -7.105469 C 2.761719 -11.375 3.875 -11.96875 5.984375 -11.96875 C 7.773438 -11.96875 8.6875 -11.648438 8.933594 -10.082031 C 8.960938 -9.914062 9.101562 -9.839844 9.253906 -9.839844 L 10.121094 -9.839844 C 10.308594 -9.839844 10.394531 -9.953125 10.367188 -10.160156 C 9.988281 -12.570312 8.667969 -13.382812 5.976562 -13.382812 C 2.742188 -13.382812 1.320312 -12.089844 1.320312 -7.105469 L 1.320312 -5.992188 C 1.320312 -1.007812 2.742188 0.28125 5.976562 0.28125 C 8.667969 0.28125 9.988281 -0.527344 10.367188 -2.941406 C 10.394531 -3.148438 10.308594 -3.261719 10.121094 -3.261719 L 9.253906 -3.261719 C 9.101562 -3.261719 8.960938 -3.183594 8.933594 -3.015625 C 8.6875 -1.453125 7.773438 -1.128906 5.984375 -1.128906 Z M 5.984375 -1.128906 "/></g></g></g><g fill="#00ffff" fill-opacity="1"><g transform="translate(71.087124, 43.593305)"><g/></g></g><g fill="#00ffff" fill-opacity="1"><g transform="translate(84.692941, 43.593305)"><g><path d="M 10.035156 -13.191406 L 9.1875 -13.191406 C 9.019531 -13.191406 8.90625 -13.082031 8.90625 -12.910156 L 8.90625 -7.613281 L 8.753906 -7.613281 C 8.265625 -8.613281 7.226562 -9.441406 5.53125 -9.441406 C 2.78125 -9.441406 1.082031 -7.371094 1.082031 -4.597656 C 1.082031 -1.828125 2.875 0.246094 5.53125 0.246094 C 7.066406 0.246094 8.179688 -0.40625 8.894531 -1.375 L 8.980469 -0.28125 C 9 -0.113281 9.09375 0 9.261719 0 L 10.035156 0 C 10.207031 0 10.320312 -0.113281 10.320312 -0.28125 L 10.320312 -12.910156 C 10.320312 -13.082031 10.207031 -13.191406 10.035156 -13.191406 Z M 5.757812 -1.035156 C 3.683594 -1.035156 2.441406 -2.527344 2.441406 -4.617188 C 2.441406 -6.710938 3.683594 -8.160156 5.757812 -8.160156 C 7.738281 -8.160156 9.019531 -6.710938 9.019531 -4.617188 C 9.019531 -2.527344 7.738281 -1.035156 5.757812 -1.035156 Z M 5.757812 -1.035156 "/></g></g></g><g fill="#00ffff" fill-opacity="1"><g transform="translate(98.298757, 43.593305)"><g><path d="M 5.816406 -9.441406 C 3.101562 -9.441406 1.214844 -7.3125 1.214844 -4.597656 C 1.214844 -1.882812 3.101562 0.246094 5.964844 0.246094 C 7.398438 0.246094 8.546875 -0.265625 9.453125 -1.167969 C 9.601562 -1.320312 9.582031 -1.453125 9.433594 -1.601562 L 9.054688 -1.980469 C 8.933594 -2.101562 8.8125 -2.074219 8.679688 -1.960938 C 8.058594 -1.414062 7.265625 -0.980469 6.117188 -0.980469 C 4.15625 -0.980469 2.816406 -2.234375 2.601562 -3.976562 L 9.640625 -3.976562 C 10.113281 -3.976562 10.1875 -4.277344 10.1875 -4.917969 C 10.1875 -7.292969 8.546875 -9.441406 5.816406 -9.441406 Z M 5.816406 -8.199219 C 7.605469 -8.199219 8.859375 -6.851562 8.941406 -5.125 L 2.601562 -5.125 C 2.800781 -6.898438 4.0625 -8.199219 5.816406 -8.199219 Z M 5.816406 -8.199219 "/></g></g></g><g fill="#ffffff" fill-opacity="1"><g transform="translate(30.04751, 43.620583)"><g><path d="M 6.265625 -1.035156 C 4.289062 -1.035156 2.816406 -2.507812 2.816406 -4.597656 C 2.816406 -6.691406 4.289062 -8.160156 6.265625 -8.160156 C 7.472656 -8.160156 8.453125 -7.632812 9.101562 -6.765625 C 9.214844 -6.617188 9.328125 -6.605469 9.480469 -6.699219 L 10.082031 -7.058594 C 10.234375 -7.152344 10.273438 -7.292969 10.167969 -7.445312 C 9.328125 -8.679688 7.925781 -9.441406 6.246094 -9.441406 C 3.476562 -9.441406 1.460938 -7.351562 1.460938 -4.597656 C 1.460938 -1.847656 3.476562 0.246094 6.246094 0.246094 C 7.925781 0.246094 9.328125 -0.519531 10.167969 -1.753906 C 10.273438 -1.902344 10.234375 -2.046875 10.082031 -2.140625 L 9.480469 -2.496094 C 9.328125 -2.589844 9.214844 -2.582031 9.101562 -2.429688 C 8.453125 -1.5625 7.472656 -1.035156 6.265625 -1.035156 Z M 6.265625 -1.035156 "/></g></g></g><g fill="#ffffff" fill-opacity="1"><g transform="translate(43.653325, 43.620583)"><g><path d="M 6.578125 -9.441406 C 4.929688 -9.441406 3.761719 -8.558594 3.230469 -7.652344 L 3.0625 -7.652344 L 3.0625 -12.910156 C 3.0625 -13.082031 2.949219 -13.191406 2.78125 -13.191406 L 1.933594 -13.191406 C 1.761719 -13.191406 1.648438 -13.082031 1.648438 -12.910156 L 1.648438 -0.28125 C 1.648438 -0.113281 1.761719 0 1.933594 0 L 2.78125 0 C 2.949219 0 3.0625 -0.113281 3.0625 -0.28125 L 3.0625 -6.078125 C 3.214844 -6.617188 4.230469 -8.152344 6.164062 -8.152344 C 7.738281 -8.152344 8.546875 -7.3125 8.546875 -5.671875 L 8.546875 -0.28125 C 8.546875 -0.113281 8.660156 0 8.828125 0 L 9.679688 0 C 9.847656 0 9.960938 -0.113281 9.960938 -0.28125 L 9.960938 -5.765625 C 9.960938 -8.238281 8.660156 -9.441406 6.578125 -9.441406 Z M 6.578125 -9.441406 "/></g></g></g><g fill="#ffffff" fill-opacity="1"><g transform="translate(57.25914, 43.620583)"><g><path d="M 5.984375 -1.128906 C 3.875 -1.128906 2.761719 -1.722656 2.761719 -5.992188 L 2.761719 -7.105469 C 2.761719 -11.375 3.875 -11.96875 5.984375 -11.96875 C 7.773438 -11.96875 8.6875 -11.648438 8.933594 -10.082031 C 8.960938 -9.914062 9.101562 -9.839844 9.253906 -9.839844 L 10.121094 -9.839844 C 10.308594 -9.839844 10.394531 -9.953125 10.367188 -10.160156 C 9.988281 -12.570312 8.667969 -13.382812 5.976562 -13.382812 C 2.742188 -13.382812 1.320312 -12.089844 1.320312 -7.105469 L 1.320312 -5.992188 C 1.320312 -1.007812 2.742188 0.28125 5.976562 0.28125 C 8.667969 0.28125 9.988281 -0.527344 10.367188 -2.941406 C 10.394531 -3.148438 10.308594 -3.261719 10.121094 -3.261719 L 9.253906 -3.261719 C 9.101562 -3.261719 8.960938 -3.183594 8.933594 -3.015625 C 8.6875 -1.453125 7.773438 -1.128906 5.984375 -1.128906 Z M 5.984375 -1.128906 "/></g></g></g><g fill="#ffffff" fill-opacity="1"><g transform="translate(70.864954, 43.620583)"><g/></g></g><g fill="#ffffff" fill-opacity="1"><g transform="translate(84.470771, 43.620583)"><g><path d="M 10.035156 -13.191406 L 9.1875 -13.191406 C 9.019531 -13.191406 8.90625 -13.082031 8.90625 -12.910156 L 8.90625 -7.613281 L 8.753906 -7.613281 C 8.265625 -8.613281 7.226562 -9.441406 5.53125 -9.441406 C 2.78125 -9.441406 1.082031 -7.371094 1.082031 -4.597656 C 1.082031 -1.828125 2.875 0.246094 5.53125 0.246094 C 7.066406 0.246094 8.179688 -0.40625 8.894531 -1.375 L 8.980469 -0.28125 C 9 -0.113281 9.09375 0 9.261719 0 L 10.035156 0 C 10.207031 0 10.320312 -0.113281 10.320312 -0.28125 L 10.320312 -12.910156 C 10.320312 -13.082031 10.207031 -13.191406 10.035156 -13.191406 Z M 5.757812 -1.035156 C 3.683594 -1.035156 2.441406 -2.527344 2.441406 -4.617188 C 2.441406 -6.710938 3.683594 -8.160156 5.757812 -8.160156 C 7.738281 -8.160156 9.019531 -6.710938 9.019531 -4.617188 C 9.019531 -2.527344 7.738281 -1.035156 5.757812 -1.035156 Z M 5.757812 -1.035156 "/></g></g></g><g fill="#ffffff" fill-opacity="1"><g transform="translate(98.076587, 43.620583)"><g><path d="M 5.816406 -9.441406 C 3.101562 -9.441406 1.214844 -7.3125 1.214844 -4.597656 C 1.214844 -1.882812 3.101562 0.246094 5.964844 0.246094 C 7.398438 0.246094 8.546875 -0.265625 9.453125 -1.167969 C 9.601562 -1.320312 9.582031 -1.453125 9.433594 -1.601562 L 9.054688 -1.980469 C 8.933594 -2.101562 8.8125 -2.074219 8.679688 -1.960938 C 8.058594 -1.414062 7.265625 -0.980469 6.117188 -0.980469 C 4.15625 -0.980469 2.816406 -2.234375 2.601562 -3.976562 L 9.640625 -3.976562 C 10.113281 -3.976562 10.1875 -4.277344 10.1875 -4.917969 C 10.1875 -7.292969 8.546875 -9.441406 5.816406 -9.441406 Z M 5.816406 -8.199219 C 7.605469 -8.199219 8.859375 -6.851562 8.941406 -5.125 L 2.601562 -5.125 C 2.800781 -6.898438 4.0625 -8.199219 5.816406 -8.199219 Z M 5.816406 -8.199219 "/></g></g></g><g clip-path="url(#d99e135d31)"><g clip-path="url(#b6f70e5fa7)"><g clip-path="url(#d6ac06da06)"><path fill="#5e17eb" d="M 71.609375 35.855469 C 70.285156 38.074219 71.667969 41.40625 74.703125 43.324219 C 71.800781 41.488281 70.476562 38.300781 71.746094 36.175781 C 73.023438 34.035156 76.453125 33.78125 79.402344 35.613281 C 82.351562 37.445312 83.707031 40.664062 82.429688 42.804688 C 81.152344 44.949219 77.722656 45.199219 74.773438 43.367188 C 77.855469 45.28125 81.4375 45.019531 82.773438 42.78125 C 84.109375 40.542969 82.691406 37.179688 79.609375 35.265625 C 76.527344 33.355469 72.945312 33.617188 71.609375 35.855469 " fill-opacity="1" fill-rule="nonzero"/></g></g></g><g clip-path="url(#e398b912ba)"><g clip-path="url(#942428c210)"><g clip-path="url(#daa21336b6)"><g clip-path="url(#15964b10fc)"><g clip-path="url(#723d63e5df)"><path fill="#8c52ff" d="M 72.902344 34.351562 C 74.613281 33.324219 77.289062 33.503906 79.671875 34.980469 C 82.296875 36.609375 83.710938 39.289062 83.253906 41.429688 C 84.484375 39.285156 83.125 36.101562 80.195312 34.28125 C 77.492188 32.605469 74.382812 32.675781 72.902344 34.351562 " fill-opacity="1" fill-rule="nonzero"/></g></g></g></g></g><g clip-path="url(#53e155c14c)"><g clip-path="url(#2039f815d3)"><g clip-path="url(#d2dc79ab3c)"><path fill="#8c52ff" d="M 82.734375 41.90625 C 81.1875 43.394531 78.21875 43.394531 75.621094 41.785156 C 73.152344 40.253906 71.800781 37.75 72.175781 35.71875 C 71.632812 37.789062 72.992188 40.441406 75.566406 42.039062 C 78.164062 43.648438 81.132812 43.648438 82.679688 42.160156 C 82.785156 41.917969 82.863281 41.660156 82.914062 41.394531 C 82.867188 41.570312 82.808594 41.742188 82.734375 41.90625 " fill-opacity="1" fill-rule="nonzero"/></g></g></g><g clip-path="url(#07d2c57112)"><path fill="#8c52ff" d="M 81.246094 33.597656 C 79.203125 32.007812 75.730469 32.96875 73.449219 35.746094 C 75.632812 33.089844 78.957031 32.171875 80.910156 33.691406 C 82.875 35.226562 82.703125 38.660156 80.519531 41.359375 C 78.339844 44.0625 74.976562 45.011719 73.011719 43.476562 C 71.042969 41.945312 71.214844 38.511719 73.398438 35.808594 C 71.121094 38.628906 70.9375 42.21875 72.992188 43.820312 C 75.046875 45.421875 78.5625 44.429688 80.839844 41.609375 C 83.117188 38.785156 83.300781 35.199219 81.246094 33.597656 " fill-opacity="1" fill-rule="nonzero"/></g><g clip-path="url(#af20a523f3)"><path fill="#5e17eb" d="M 82.578125 35.0625 C 83.382812 36.890625 82.875 39.527344 81.117188 41.707031 C 79.175781 44.109375 76.34375 45.183594 74.277344 44.464844 C 76.25 45.949219 79.578125 44.996094 81.742188 42.3125 C 83.742188 39.835938 84.054688 36.742188 82.578125 35.0625 " fill-opacity="1" fill-rule="nonzero"/></g><path fill="#5e17eb" d="M 73.863281 43.890625 C 72.582031 42.171875 72.945312 39.226562 74.867188 36.847656 C 76.691406 34.585938 79.339844 33.554688 81.3125 34.175781 C 79.320312 33.382812 76.523438 34.40625 74.621094 36.761719 C 72.699219 39.140625 72.335938 42.085938 73.617188 43.804688 C 73.847656 43.941406 74.09375 44.050781 74.351562 44.128906 C 74.183594 44.0625 74.019531 43.984375 73.863281 43.890625 " fill-opacity="1" fill-rule="nonzero"/></svg>