<svg xmlns="http://www.w3.org/2000/svg" xmlns:xlink="http://www.w3.org/1999/xlink" width="500" zoomAndPan="magnify" viewBox="0 0 375 374.999991" height="500" preserveAspectRatio="xMidYMid meet" version="1.0"><defs><clipPath id="afbc6b195b"><path d="M 20 56 L 355 56 L 355 345 L 20 345 Z M 20 56 " clip-rule="nonzero"/></clipPath><clipPath id="fe5731d9a8"><path d="M 25.339844 389.007812 L -16.621094 51.859375 L 349.554688 6.289062 L 391.515625 343.4375 Z M 25.339844 389.007812 " clip-rule="nonzero"/></clipPath><clipPath id="73f4e395c6"><path d="M 25.339844 389.007812 L -16.621094 51.859375 L 349.554688 6.289062 L 391.515625 343.4375 Z M 25.339844 389.007812 " clip-rule="nonzero"/></clipPath><clipPath id="ff5ff5a5de"><path d="M 69 31 L 367 31 L 367 258 L 69 258 Z M 69 31 " clip-rule="nonzero"/></clipPath><clipPath id="01bff86746"><path d="M 25.339844 389.007812 L -16.621094 51.859375 L 349.554688 6.289062 L 391.515625 343.4375 Z M 25.339844 389.007812 " clip-rule="nonzero"/></clipPath><clipPath id="77e720e260"><path d="M 25.339844 389.007812 L -16.621094 51.859375 L 349.554688 6.289062 L 391.515625 343.4375 Z M 25.339844 389.007812 " clip-rule="nonzero"/></clipPath><clipPath id="c7e9d777b0"><path d="M 97.535156 289.445312 L 66.636719 41.160156 L 342.910156 6.777344 L 373.808594 255.066406 Z M 97.535156 289.445312 " clip-rule="nonzero"/></clipPath><clipPath id="bf3220362f"><path d="M 97.535156 289.445312 L 66.675781 41.488281 L 342.492188 7.160156 L 373.351562 255.121094 Z M 97.535156 289.445312 " clip-rule="nonzero"/></clipPath><clipPath id="b15d5db72f"><path d="M 46 103 L 345 103 L 345 307 L 46 307 Z M 46 103 " clip-rule="nonzero"/></clipPath><clipPath id="2c553c40dc"><path d="M 25.339844 389.007812 L -16.621094 51.859375 L 349.554688 6.289062 L 391.515625 343.4375 Z M 25.339844 389.007812 " clip-rule="nonzero"/></clipPath><clipPath id="903ff9ccbe"><path d="M 25.339844 389.007812 L -16.621094 51.859375 L 349.554688 6.289062 L 391.515625 343.4375 Z M 25.339844 389.007812 " clip-rule="nonzero"/></clipPath><clipPath id="6822332587"><path d="M 105.3125 84 L 355.179688 84 L 355.179688 361.882812 L 105.3125 361.882812 Z M 105.3125 84 " clip-rule="nonzero"/></clipPath></defs><g clip-path="url(#afbc6b195b)"><g clip-path="url(#fe5731d9a8)"><g clip-path="url(#73f4e395c6)"><path fill="#5e17eb" d="M 34.355469 107 C -2.222656 167.144531 35.675781 257.164062 119.011719 308.925781 C 39.292969 259.367188 3.050781 173.230469 38.050781 115.675781 C 73.328125 57.667969 167.621094 50.660156 248.652344 100.027344 C 329.6875 149.390625 366.78125 236.433594 331.503906 294.441406 C 296.226562 352.449219 201.9375 359.453125 120.902344 310.089844 C 205.554688 361.660156 304.050781 354.339844 340.902344 293.742188 C 377.753906 233.144531 339.003906 142.21875 254.355469 90.652344 C 169.703125 39.082031 71.207031 46.402344 34.355469 107 " fill-opacity="1" fill-rule="nonzero"/></g></g></g><g clip-path="url(#ff5ff5a5de)"><g clip-path="url(#01bff86746)"><g clip-path="url(#77e720e260)"><g clip-path="url(#c7e9d777b0)"><g clip-path="url(#bf3220362f)"><path fill="#8c52ff" d="M 69.945312 66.238281 C 117.0625 38.382812 190.710938 43.082031 256.097656 82.914062 C 328.132812 126.796875 366.929688 199.175781 354.1875 257.117188 C 388.152344 199.117188 351.011719 112.988281 270.574219 63.984375 C 196.269531 18.722656 110.824219 20.851562 69.945312 66.238281 " fill-opacity="1" fill-rule="nonzero"/></g></g></g></g></g><g clip-path="url(#b15d5db72f)"><g clip-path="url(#2c553c40dc)"><g clip-path="url(#903ff9ccbe)"><path fill="#8c52ff" d="M 339.910156 270.128906 C 297.339844 310.398438 215.71875 310.632812 144.375 267.171875 C 76.582031 225.875 39.550781 158.207031 49.914062 103.230469 C 34.925781 159.335938 72.171875 231.011719 142.820312 274.050781 C 214.167969 317.511719 295.785156 317.273438 338.359375 277.007812 C 341.359375 270.355469 343.507812 263.398438 344.859375 256.230469 C 343.589844 260.984375 341.945312 265.625 339.910156 270.128906 " fill-opacity="1" fill-rule="nonzero"/></g></g></g><path fill="#8c52ff" d="M 294.167969 43.773438 C 239 0.0507812 144.988281 26.539062 83.328125 102.84375 C 142.355469 29.859375 232.308594 4.53125 285.097656 46.371094 C 338.304688 88.542969 333.613281 182.976562 274.621094 257.292969 C 215.625 331.613281 124.667969 357.671875 71.460938 315.5 C 18.253906 273.328125 22.945312 178.894531 81.941406 104.578125 C 20.3125 182.210938 15.414062 280.859375 70.992188 324.914062 C 126.574219 368.964844 221.59375 341.742188 283.21875 264.109375 C 344.847656 186.472656 349.746094 87.828125 294.167969 43.773438 " fill-opacity="1" fill-rule="nonzero"/><g clip-path="url(#6822332587)"><path fill="#5e17eb" d="M 330.21875 84.128906 C 352.039062 134.324219 338.285156 206.828125 290.679688 266.796875 C 238.238281 332.859375 161.621094 362.417969 105.695312 342.617188 C 159.058594 383.488281 249.117188 357.269531 307.675781 283.496094 C 361.769531 215.351562 370.207031 130.300781 330.21875 84.128906 " fill-opacity="1" fill-rule="nonzero"/></g><path fill="#5e17eb" d="M 94.546875 326.847656 C 59.847656 279.625 69.691406 198.601562 121.632812 133.171875 C 170.984375 70.996094 242.707031 42.609375 295.984375 59.679688 C 242.15625 37.878906 166.433594 65.988281 114.996094 130.78125 C 63.058594 196.214844 53.214844 277.234375 87.914062 324.457031 C 94.144531 328.253906 100.785156 331.246094 107.730469 333.472656 C 103.167969 331.625 98.765625 329.417969 94.546875 326.847656 " fill-opacity="1" fill-rule="nonzero"/></svg>