<svg xmlns="http://www.w3.org/2000/svg" xmlns:xlink="http://www.w3.org/1999/xlink" width="70" zoomAndPan="magnify" viewBox="0 0 52.5 52.499999" height="70" preserveAspectRatio="xMidYMid meet" version="1.0"><defs><g/><clipPath id="63352b2ef8"><path d="M 14.660156 11.773438 L 49.410156 11.773438 L 49.410156 50.75 L 14.660156 50.75 Z M 14.660156 11.773438 " clip-rule="nonzero"/></clipPath><clipPath id="1dadf02f1e"><path d="M 2 8 L 50 8 L 50 49 L 2 49 Z M 2 8 " clip-rule="nonzero"/></clipPath><clipPath id="13c835cee3"><path d="M 3.546875 54.457031 L -2.289062 7.566406 L 49.0625 1.175781 L 54.898438 48.066406 Z M 3.546875 54.457031 " clip-rule="nonzero"/></clipPath><clipPath id="ef59f4bc16"><path d="M 3.546875 54.457031 L -2.289062 7.566406 L 49.0625 1.175781 L 54.898438 48.066406 Z M 3.546875 54.457031 " clip-rule="nonzero"/></clipPath><clipPath id="6493f2371a"><path d="M 9 4 L 52 4 L 52 37 L 9 37 Z M 9 4 " clip-rule="nonzero"/></clipPath><clipPath id="2b15ffcbfc"><path d="M 3.546875 54.457031 L -2.289062 7.566406 L 49.0625 1.175781 L 54.898438 48.066406 Z M 3.546875 54.457031 " clip-rule="nonzero"/></clipPath><clipPath id="d44fbaec20"><path d="M 3.546875 54.457031 L -2.289062 7.566406 L 49.0625 1.175781 L 54.898438 48.066406 Z M 3.546875 54.457031 " clip-rule="nonzero"/></clipPath><clipPath id="f898d053f6"><path d="M 13.683594 40.597656 L 9.386719 6.066406 L 48.128906 1.246094 L 52.425781 35.777344 Z M 13.683594 40.597656 " clip-rule="nonzero"/></clipPath><clipPath id="5da1ff42da"><path d="M 13.683594 40.597656 L 9.394531 6.113281 L 48.070312 1.300781 L 52.363281 35.785156 Z M 13.683594 40.597656 " clip-rule="nonzero"/></clipPath><clipPath id="75603e762f"><path d="M 6 14 L 49 14 L 49 44 L 6 44 Z M 6 14 " clip-rule="nonzero"/></clipPath><clipPath id="ece9aaba6e"><path d="M 3.546875 54.457031 L -2.289062 7.566406 L 49.0625 1.175781 L 54.898438 48.066406 Z M 3.546875 54.457031 " clip-rule="nonzero"/></clipPath><clipPath id="4cda6cc9fd"><path d="M 3.546875 54.457031 L -2.289062 7.566406 L 49.0625 1.175781 L 54.898438 48.066406 Z M 3.546875 54.457031 " clip-rule="nonzero"/></clipPath></defs><path fill="#8c52ff" d="M 40.925781 6.140625 C 33.253906 0.0078125 20.179688 3.722656 11.601562 14.425781 C 19.8125 4.1875 32.320312 0.636719 39.664062 6.503906 C 47.0625 12.417969 46.410156 25.660156 38.207031 36.082031 C 30.003906 46.503906 17.351562 50.160156 9.953125 44.246094 C 2.554688 38.332031 3.207031 25.089844 11.410156 14.667969 C 2.839844 25.554688 2.15625 39.386719 9.886719 45.566406 C 17.617188 51.742188 30.832031 47.925781 39.402344 37.039062 C 47.972656 26.152344 48.65625 12.320312 40.925781 6.140625 " fill-opacity="1" fill-rule="nonzero"/><g clip-path="url(#63352b2ef8)"><path fill="#5e17eb" d="M 45.9375 11.800781 C 48.972656 18.839844 47.058594 29.007812 40.441406 37.414062 C 33.148438 46.679688 22.492188 50.824219 14.714844 48.046875 C 22.136719 53.777344 34.660156 50.101562 42.804688 39.757812 C 50.328125 30.203125 51.5 18.273438 45.9375 11.800781 " fill-opacity="1" fill-rule="nonzero"/></g><path fill="#5e17eb" d="M 13.164062 45.835938 C 8.335938 39.214844 9.707031 27.851562 16.929688 18.675781 C 23.792969 9.957031 33.769531 5.976562 41.175781 8.371094 C 33.691406 5.3125 23.160156 9.253906 16.007812 18.339844 C 8.785156 27.519531 7.414062 38.878906 12.242188 45.5 C 13.105469 46.035156 14.03125 46.453125 14.996094 46.765625 C 14.363281 46.507812 13.75 46.195312 13.164062 45.835938 " fill-opacity="1" fill-rule="nonzero"/><g clip-path="url(#1dadf02f1e)"><g clip-path="url(#13c835cee3)"><g clip-path="url(#ef59f4bc16)"><path fill="#5e17eb" d="M 4.851562 15.230469 C -0.285156 23.601562 5.015625 36.117188 16.691406 43.304688 C 5.523438 36.421875 0.453125 24.445312 5.367188 16.433594 C 10.324219 8.363281 23.546875 7.375 34.898438 14.230469 C 46.253906 21.082031 51.445312 33.183594 46.488281 41.257812 C 41.535156 49.332031 28.3125 50.320312 16.957031 43.464844 C 28.820312 50.625 42.632812 49.59375 47.808594 41.160156 C 52.984375 32.726562 47.5625 20.085938 35.699219 12.925781 C 23.839844 5.761719 10.027344 6.796875 4.851562 15.230469 " fill-opacity="1" fill-rule="nonzero"/></g></g></g><g clip-path="url(#6493f2371a)"><g clip-path="url(#2b15ffcbfc)"><g clip-path="url(#d44fbaec20)"><g clip-path="url(#f898d053f6)"><g clip-path="url(#5da1ff42da)"><path fill="#8c52ff" d="M 9.847656 9.554688 C 16.457031 5.671875 26.785156 6.316406 35.945312 11.847656 C 46.039062 17.941406 51.46875 28.003906 49.675781 36.0625 C 54.445312 27.992188 49.25 16.015625 37.976562 9.210938 C 27.566406 2.925781 15.585938 3.234375 9.847656 9.554688 " fill-opacity="1" fill-rule="nonzero"/></g></g></g></g></g><g clip-path="url(#75603e762f)"><g clip-path="url(#ece9aaba6e)"><g clip-path="url(#4cda6cc9fd)"><path fill="#8c52ff" d="M 47.671875 37.875 C 41.695312 43.484375 30.253906 43.527344 20.253906 37.492188 C 10.753906 31.757812 5.574219 22.351562 7.035156 14.703125 C 4.925781 22.507812 10.136719 32.472656 20.035156 38.449219 C 30.035156 44.484375 41.476562 44.4375 47.453125 38.832031 C 47.875 37.90625 48.175781 36.9375 48.367188 35.941406 C 48.1875 36.601562 47.957031 37.25 47.671875 37.875 " fill-opacity="1" fill-rule="nonzero"/></g></g></g><g fill="#ff0000" fill-opacity="1"><g transform="translate(21.497908, 22.225544)"><g><path d="M 3.023438 -3.847656 L 0.359375 -3.847656 C 0.308594 -3.847656 0.273438 -3.816406 0.273438 -3.765625 L 0.273438 -3.535156 C 0.273438 -3.488281 0.308594 -3.453125 0.359375 -3.453125 L 1.476562 -3.453125 L 1.476562 -0.0820312 C 1.476562 -0.03125 1.507812 0 1.558594 0 L 1.824219 0 C 1.871094 0 1.90625 -0.03125 1.90625 -0.0820312 L 1.90625 -3.453125 L 3.023438 -3.453125 C 3.074219 -3.453125 3.105469 -3.488281 3.105469 -3.535156 L 3.105469 -3.765625 C 3.105469 -3.816406 3.074219 -3.847656 3.023438 -3.847656 Z M 3.023438 -3.847656 "/></g></g></g><g fill="#ff0000" fill-opacity="1"><g transform="translate(25.468218, 22.225544)"><g><path d="M 1.695312 -2.753906 C 0.90625 -2.753906 0.355469 -2.132812 0.355469 -1.339844 C 0.355469 -0.550781 0.90625 0.0703125 1.742188 0.0703125 C 2.160156 0.0703125 2.492188 -0.078125 2.757812 -0.339844 C 2.800781 -0.386719 2.796875 -0.421875 2.753906 -0.46875 L 2.640625 -0.578125 C 2.605469 -0.613281 2.570312 -0.605469 2.53125 -0.570312 C 2.351562 -0.414062 2.121094 -0.285156 1.785156 -0.285156 C 1.210938 -0.285156 0.820312 -0.652344 0.757812 -1.160156 L 2.8125 -1.160156 C 2.949219 -1.160156 2.972656 -1.25 2.972656 -1.433594 C 2.972656 -2.128906 2.492188 -2.753906 1.695312 -2.753906 Z M 1.695312 -2.390625 C 2.21875 -2.390625 2.585938 -2 2.609375 -1.496094 L 0.757812 -1.496094 C 0.816406 -2.011719 1.183594 -2.390625 1.695312 -2.390625 Z M 1.695312 -2.390625 "/></g></g></g><g fill="#ff0000" fill-opacity="1"><g transform="translate(29.438528, 22.225544)"><g><path d="M 1.828125 -0.300781 C 1.25 -0.300781 0.820312 -0.730469 0.820312 -1.339844 C 0.820312 -1.953125 1.25 -2.382812 1.828125 -2.382812 C 2.179688 -2.382812 2.464844 -2.226562 2.65625 -1.972656 C 2.6875 -1.929688 2.722656 -1.925781 2.765625 -1.953125 L 2.941406 -2.058594 C 2.984375 -2.085938 2.996094 -2.128906 2.964844 -2.171875 C 2.722656 -2.53125 2.3125 -2.753906 1.824219 -2.753906 C 1.015625 -2.753906 0.425781 -2.144531 0.425781 -1.339844 C 0.425781 -0.539062 1.015625 0.0703125 1.824219 0.0703125 C 2.3125 0.0703125 2.722656 -0.152344 2.964844 -0.511719 C 2.996094 -0.554688 2.984375 -0.597656 2.941406 -0.625 L 2.765625 -0.730469 C 2.722656 -0.757812 2.6875 -0.753906 2.65625 -0.710938 C 2.464844 -0.457031 2.179688 -0.300781 1.828125 -0.300781 Z M 1.828125 -0.300781 "/></g></g></g><g fill="#ff0000" fill-opacity="1"><g transform="translate(33.408838, 22.225544)"><g><path d="M 1.917969 -2.753906 C 1.4375 -2.753906 1.097656 -2.496094 0.941406 -2.234375 L 0.894531 -2.234375 L 0.894531 -3.765625 C 0.894531 -3.816406 0.859375 -3.847656 0.8125 -3.847656 L 0.5625 -3.847656 C 0.515625 -3.847656 0.480469 -3.816406 0.480469 -3.765625 L 0.480469 -0.0820312 C 0.480469 -0.03125 0.515625 0 0.5625 0 L 0.8125 0 C 0.859375 0 0.894531 -0.03125 0.894531 -0.0820312 L 0.894531 -1.773438 C 0.9375 -1.929688 1.234375 -2.378906 1.796875 -2.378906 C 2.257812 -2.378906 2.492188 -2.132812 2.492188 -1.65625 L 2.492188 -0.0820312 C 2.492188 -0.03125 2.527344 0 2.578125 0 L 2.824219 0 C 2.875 0 2.90625 -0.03125 2.90625 -0.0820312 L 2.90625 -1.683594 C 2.90625 -2.402344 2.527344 -2.753906 1.917969 -2.753906 Z M 1.917969 -2.753906 "/></g></g></g><g fill="#00ffff" fill-opacity="1"><g transform="translate(21.495222, 22.231871)"><g><path d="M 3.023438 -3.847656 L 0.359375 -3.847656 C 0.308594 -3.847656 0.273438 -3.816406 0.273438 -3.765625 L 0.273438 -3.535156 C 0.273438 -3.488281 0.308594 -3.453125 0.359375 -3.453125 L 1.476562 -3.453125 L 1.476562 -0.0820312 C 1.476562 -0.03125 1.507812 0 1.558594 0 L 1.824219 0 C 1.871094 0 1.90625 -0.03125 1.90625 -0.0820312 L 1.90625 -3.453125 L 3.023438 -3.453125 C 3.074219 -3.453125 3.105469 -3.488281 3.105469 -3.535156 L 3.105469 -3.765625 C 3.105469 -3.816406 3.074219 -3.847656 3.023438 -3.847656 Z M 3.023438 -3.847656 "/></g></g></g><g fill="#00ffff" fill-opacity="1"><g transform="translate(25.465532, 22.231871)"><g><path d="M 1.695312 -2.753906 C 0.90625 -2.753906 0.355469 -2.132812 0.355469 -1.339844 C 0.355469 -0.550781 0.90625 0.0703125 1.742188 0.0703125 C 2.160156 0.0703125 2.492188 -0.078125 2.757812 -0.339844 C 2.800781 -0.386719 2.796875 -0.421875 2.753906 -0.46875 L 2.640625 -0.578125 C 2.605469 -0.613281 2.570312 -0.605469 2.53125 -0.570312 C 2.351562 -0.414062 2.121094 -0.285156 1.785156 -0.285156 C 1.210938 -0.285156 0.820312 -0.652344 0.757812 -1.160156 L 2.8125 -1.160156 C 2.949219 -1.160156 2.972656 -1.25 2.972656 -1.433594 C 2.972656 -2.128906 2.492188 -2.753906 1.695312 -2.753906 Z M 1.695312 -2.390625 C 2.21875 -2.390625 2.585938 -2 2.609375 -1.496094 L 0.757812 -1.496094 C 0.816406 -2.011719 1.183594 -2.390625 1.695312 -2.390625 Z M 1.695312 -2.390625 "/></g></g></g><g fill="#00ffff" fill-opacity="1"><g transform="translate(29.435842, 22.231871)"><g><path d="M 1.828125 -0.300781 C 1.25 -0.300781 0.820312 -0.730469 0.820312 -1.339844 C 0.820312 -1.953125 1.25 -2.382812 1.828125 -2.382812 C 2.179688 -2.382812 2.464844 -2.226562 2.65625 -1.972656 C 2.6875 -1.929688 2.722656 -1.925781 2.765625 -1.953125 L 2.941406 -2.058594 C 2.984375 -2.085938 2.996094 -2.128906 2.964844 -2.171875 C 2.722656 -2.53125 2.3125 -2.753906 1.824219 -2.753906 C 1.015625 -2.753906 0.425781 -2.144531 0.425781 -1.339844 C 0.425781 -0.539062 1.015625 0.0703125 1.824219 0.0703125 C 2.3125 0.0703125 2.722656 -0.152344 2.964844 -0.511719 C 2.996094 -0.554688 2.984375 -0.597656 2.941406 -0.625 L 2.765625 -0.730469 C 2.722656 -0.757812 2.6875 -0.753906 2.65625 -0.710938 C 2.464844 -0.457031 2.179688 -0.300781 1.828125 -0.300781 Z M 1.828125 -0.300781 "/></g></g></g><g fill="#00ffff" fill-opacity="1"><g transform="translate(33.406152, 22.231871)"><g><path d="M 1.917969 -2.753906 C 1.4375 -2.753906 1.097656 -2.496094 0.941406 -2.234375 L 0.894531 -2.234375 L 0.894531 -3.765625 C 0.894531 -3.816406 0.859375 -3.847656 0.8125 -3.847656 L 0.5625 -3.847656 C 0.515625 -3.847656 0.480469 -3.816406 0.480469 -3.765625 L 0.480469 -0.0820312 C 0.480469 -0.03125 0.515625 0 0.5625 0 L 0.8125 0 C 0.859375 0 0.894531 -0.03125 0.894531 -0.0820312 L 0.894531 -1.773438 C 0.9375 -1.929688 1.234375 -2.378906 1.796875 -2.378906 C 2.257812 -2.378906 2.492188 -2.132812 2.492188 -1.65625 L 2.492188 -0.0820312 C 2.492188 -0.03125 2.527344 0 2.578125 0 L 2.824219 0 C 2.875 0 2.90625 -0.03125 2.90625 -0.0820312 L 2.90625 -1.683594 C 2.90625 -2.402344 2.527344 -2.753906 1.917969 -2.753906 Z M 1.917969 -2.753906 "/></g></g></g><g fill="#ffffff" fill-opacity="1"><g transform="translate(21.496565, 22.228707)"><g><path d="M 3.023438 -3.847656 L 0.359375 -3.847656 C 0.308594 -3.847656 0.273438 -3.816406 0.273438 -3.765625 L 0.273438 -3.535156 C 0.273438 -3.488281 0.308594 -3.453125 0.359375 -3.453125 L 1.476562 -3.453125 L 1.476562 -0.0820312 C 1.476562 -0.03125 1.507812 0 1.558594 0 L 1.824219 0 C 1.871094 0 1.90625 -0.03125 1.90625 -0.0820312 L 1.90625 -3.453125 L 3.023438 -3.453125 C 3.074219 -3.453125 3.105469 -3.488281 3.105469 -3.535156 L 3.105469 -3.765625 C 3.105469 -3.816406 3.074219 -3.847656 3.023438 -3.847656 Z M 3.023438 -3.847656 "/></g></g></g><g fill="#ffffff" fill-opacity="1"><g transform="translate(25.466875, 22.228707)"><g><path d="M 1.695312 -2.753906 C 0.90625 -2.753906 0.355469 -2.132812 0.355469 -1.339844 C 0.355469 -0.550781 0.90625 0.0703125 1.742188 0.0703125 C 2.160156 0.0703125 2.492188 -0.078125 2.757812 -0.339844 C 2.800781 -0.386719 2.796875 -0.421875 2.753906 -0.46875 L 2.640625 -0.578125 C 2.605469 -0.613281 2.570312 -0.605469 2.53125 -0.570312 C 2.351562 -0.414062 2.121094 -0.285156 1.785156 -0.285156 C 1.210938 -0.285156 0.820312 -0.652344 0.757812 -1.160156 L 2.8125 -1.160156 C 2.949219 -1.160156 2.972656 -1.25 2.972656 -1.433594 C 2.972656 -2.128906 2.492188 -2.753906 1.695312 -2.753906 Z M 1.695312 -2.390625 C 2.21875 -2.390625 2.585938 -2 2.609375 -1.496094 L 0.757812 -1.496094 C 0.816406 -2.011719 1.183594 -2.390625 1.695312 -2.390625 Z M 1.695312 -2.390625 "/></g></g></g><g fill="#ffffff" fill-opacity="1"><g transform="translate(29.437185, 22.228707)"><g><path d="M 1.828125 -0.300781 C 1.25 -0.300781 0.820312 -0.730469 0.820312 -1.339844 C 0.820312 -1.953125 1.25 -2.382812 1.828125 -2.382812 C 2.179688 -2.382812 2.464844 -2.226562 2.65625 -1.972656 C 2.6875 -1.929688 2.722656 -1.925781 2.765625 -1.953125 L 2.941406 -2.058594 C 2.984375 -2.085938 2.996094 -2.128906 2.964844 -2.171875 C 2.722656 -2.53125 2.3125 -2.753906 1.824219 -2.753906 C 1.015625 -2.753906 0.425781 -2.144531 0.425781 -1.339844 C 0.425781 -0.539062 1.015625 0.0703125 1.824219 0.0703125 C 2.3125 0.0703125 2.722656 -0.152344 2.964844 -0.511719 C 2.996094 -0.554688 2.984375 -0.597656 2.941406 -0.625 L 2.765625 -0.730469 C 2.722656 -0.757812 2.6875 -0.753906 2.65625 -0.710938 C 2.464844 -0.457031 2.179688 -0.300781 1.828125 -0.300781 Z M 1.828125 -0.300781 "/></g></g></g><g fill="#ffffff" fill-opacity="1"><g transform="translate(33.407495, 22.228707)"><g><path d="M 1.917969 -2.753906 C 1.4375 -2.753906 1.097656 -2.496094 0.941406 -2.234375 L 0.894531 -2.234375 L 0.894531 -3.765625 C 0.894531 -3.816406 0.859375 -3.847656 0.8125 -3.847656 L 0.5625 -3.847656 C 0.515625 -3.847656 0.480469 -3.816406 0.480469 -3.765625 L 0.480469 -0.0820312 C 0.480469 -0.03125 0.515625 0 0.5625 0 L 0.8125 0 C 0.859375 0 0.894531 -0.03125 0.894531 -0.0820312 L 0.894531 -1.773438 C 0.9375 -1.929688 1.234375 -2.378906 1.796875 -2.378906 C 2.257812 -2.378906 2.492188 -2.132812 2.492188 -1.65625 L 2.492188 -0.0820312 C 2.492188 -0.03125 2.527344 0 2.578125 0 L 2.824219 0 C 2.875 0 2.90625 -0.03125 2.90625 -0.0820312 L 2.90625 -1.683594 C 2.90625 -2.402344 2.527344 -2.753906 1.917969 -2.753906 Z M 1.917969 -2.753906 "/></g></g></g><g fill="#ff0000" fill-opacity="1"><g transform="translate(37.372008, 22.225544)"><g/></g></g><g fill="#ff0000" fill-opacity="1"><g transform="translate(41.342318, 22.225544)"><g/></g></g><g fill="#00ffff" fill-opacity="1"><g transform="translate(37.369322, 22.231871)"><g/></g></g><g fill="#00ffff" fill-opacity="1"><g transform="translate(41.339632, 22.231871)"><g/></g></g><g fill="#ffffff" fill-opacity="1"><g transform="translate(37.370665, 22.228707)"><g/></g></g><g fill="#ffffff" fill-opacity="1"><g transform="translate(41.340975, 22.228707)"><g/></g></g><g fill="#ff0000" fill-opacity="1"><g transform="translate(13.753028, 30.591492)"><g><path d="M 2.886719 -0.476562 C 1.976562 -0.476562 1.296875 -1.15625 1.296875 -2.121094 C 1.296875 -3.082031 1.976562 -3.761719 2.886719 -3.761719 C 3.445312 -3.761719 3.894531 -3.519531 4.195312 -3.117188 C 4.246094 -3.046875 4.300781 -3.042969 4.367188 -3.085938 L 4.648438 -3.253906 C 4.714844 -3.296875 4.734375 -3.363281 4.6875 -3.429688 C 4.300781 -4 3.652344 -4.351562 2.878906 -4.351562 C 1.601562 -4.351562 0.671875 -3.386719 0.671875 -2.121094 C 0.671875 -0.851562 1.601562 0.113281 2.878906 0.113281 C 3.652344 0.113281 4.300781 -0.238281 4.6875 -0.808594 C 4.734375 -0.878906 4.714844 -0.941406 4.648438 -0.984375 L 4.367188 -1.152344 C 4.300781 -1.195312 4.246094 -1.191406 4.195312 -1.121094 C 3.894531 -0.722656 3.445312 -0.476562 2.886719 -0.476562 Z M 2.886719 -0.476562 "/></g></g></g><g fill="#ff0000" fill-opacity="1"><g transform="translate(20.024125, 30.591492)"><g><path d="M 2.671875 0.113281 C 3.902344 0.113281 4.820312 -0.851562 4.820312 -2.121094 C 4.820312 -3.386719 3.902344 -4.351562 2.671875 -4.351562 C 1.4375 -4.351562 0.519531 -3.386719 0.519531 -2.121094 C 0.519531 -0.851562 1.4375 0.113281 2.671875 0.113281 Z M 2.671875 -0.476562 C 1.792969 -0.476562 1.148438 -1.15625 1.148438 -2.121094 C 1.148438 -3.082031 1.792969 -3.761719 2.671875 -3.761719 C 3.546875 -3.761719 4.195312 -3.082031 4.195312 -2.121094 C 4.195312 -1.15625 3.546875 -0.476562 2.671875 -0.476562 Z M 2.671875 -0.476562 "/></g></g></g><g fill="#ff0000" fill-opacity="1"><g transform="translate(26.295221, 30.591492)"><g><path d="M 4.625 -6.078125 L 4.234375 -6.078125 C 4.15625 -6.078125 4.105469 -6.027344 4.105469 -5.949219 L 4.105469 -3.507812 L 4.035156 -3.507812 C 3.808594 -3.96875 3.332031 -4.351562 2.550781 -4.351562 C 1.28125 -4.351562 0.5 -3.394531 0.5 -2.121094 C 0.5 -0.84375 1.324219 0.113281 2.550781 0.113281 C 3.257812 0.113281 3.769531 -0.1875 4.101562 -0.632812 L 4.140625 -0.128906 C 4.148438 -0.0507812 4.191406 0 4.269531 0 L 4.625 0 C 4.703125 0 4.753906 -0.0507812 4.753906 -0.128906 L 4.753906 -5.949219 C 4.753906 -6.027344 4.703125 -6.078125 4.625 -6.078125 Z M 2.652344 -0.476562 C 1.699219 -0.476562 1.125 -1.164062 1.125 -2.128906 C 1.125 -3.09375 1.699219 -3.761719 2.652344 -3.761719 C 3.566406 -3.761719 4.15625 -3.09375 4.15625 -2.128906 C 4.15625 -1.164062 3.566406 -0.476562 2.652344 -0.476562 Z M 2.652344 -0.476562 "/></g></g></g><g fill="#ff0000" fill-opacity="1"><g transform="translate(32.566318, 30.591492)"><g><path d="M 2.679688 -4.351562 C 1.429688 -4.351562 0.558594 -3.371094 0.558594 -2.121094 C 0.558594 -0.867188 1.429688 0.113281 2.75 0.113281 C 3.410156 0.113281 3.9375 -0.121094 4.355469 -0.539062 C 4.425781 -0.609375 4.417969 -0.667969 4.347656 -0.738281 L 4.171875 -0.910156 C 4.117188 -0.96875 4.0625 -0.957031 4 -0.902344 C 3.714844 -0.652344 3.347656 -0.453125 2.820312 -0.453125 C 1.914062 -0.453125 1.296875 -1.027344 1.199219 -1.832031 L 4.441406 -1.832031 C 4.660156 -1.832031 4.695312 -1.972656 4.695312 -2.265625 C 4.695312 -3.363281 3.9375 -4.351562 2.679688 -4.351562 Z M 2.679688 -3.777344 C 3.503906 -3.777344 4.082031 -3.15625 4.121094 -2.363281 L 1.199219 -2.363281 C 1.289062 -3.179688 1.871094 -3.777344 2.679688 -3.777344 Z M 2.679688 -3.777344 "/></g></g></g><g fill="#00ffff" fill-opacity="1"><g transform="translate(13.957775, 30.566353)"><g><path d="M 2.886719 -0.476562 C 1.976562 -0.476562 1.296875 -1.15625 1.296875 -2.121094 C 1.296875 -3.082031 1.976562 -3.761719 2.886719 -3.761719 C 3.445312 -3.761719 3.894531 -3.519531 4.195312 -3.117188 C 4.246094 -3.046875 4.300781 -3.042969 4.367188 -3.085938 L 4.648438 -3.253906 C 4.714844 -3.296875 4.734375 -3.363281 4.6875 -3.429688 C 4.300781 -4 3.652344 -4.351562 2.878906 -4.351562 C 1.601562 -4.351562 0.671875 -3.386719 0.671875 -2.121094 C 0.671875 -0.851562 1.601562 0.113281 2.878906 0.113281 C 3.652344 0.113281 4.300781 -0.238281 4.6875 -0.808594 C 4.734375 -0.878906 4.714844 -0.941406 4.648438 -0.984375 L 4.367188 -1.152344 C 4.300781 -1.195312 4.246094 -1.191406 4.195312 -1.121094 C 3.894531 -0.722656 3.445312 -0.476562 2.886719 -0.476562 Z M 2.886719 -0.476562 "/></g></g></g><g fill="#00ffff" fill-opacity="1"><g transform="translate(20.228872, 30.566353)"><g><path d="M 2.671875 0.113281 C 3.902344 0.113281 4.820312 -0.851562 4.820312 -2.121094 C 4.820312 -3.386719 3.902344 -4.351562 2.671875 -4.351562 C 1.4375 -4.351562 0.519531 -3.386719 0.519531 -2.121094 C 0.519531 -0.851562 1.4375 0.113281 2.671875 0.113281 Z M 2.671875 -0.476562 C 1.792969 -0.476562 1.148438 -1.15625 1.148438 -2.121094 C 1.148438 -3.082031 1.792969 -3.761719 2.671875 -3.761719 C 3.546875 -3.761719 4.195312 -3.082031 4.195312 -2.121094 C 4.195312 -1.15625 3.546875 -0.476562 2.671875 -0.476562 Z M 2.671875 -0.476562 "/></g></g></g><g fill="#00ffff" fill-opacity="1"><g transform="translate(26.499968, 30.566353)"><g><path d="M 4.625 -6.078125 L 4.234375 -6.078125 C 4.15625 -6.078125 4.105469 -6.027344 4.105469 -5.949219 L 4.105469 -3.507812 L 4.035156 -3.507812 C 3.808594 -3.96875 3.332031 -4.351562 2.550781 -4.351562 C 1.28125 -4.351562 0.5 -3.394531 0.5 -2.121094 C 0.5 -0.84375 1.324219 0.113281 2.550781 0.113281 C 3.257812 0.113281 3.769531 -0.1875 4.101562 -0.632812 L 4.140625 -0.128906 C 4.148438 -0.0507812 4.191406 0 4.269531 0 L 4.625 0 C 4.703125 0 4.753906 -0.0507812 4.753906 -0.128906 L 4.753906 -5.949219 C 4.753906 -6.027344 4.703125 -6.078125 4.625 -6.078125 Z M 2.652344 -0.476562 C 1.699219 -0.476562 1.125 -1.164062 1.125 -2.128906 C 1.125 -3.09375 1.699219 -3.761719 2.652344 -3.761719 C 3.566406 -3.761719 4.15625 -3.09375 4.15625 -2.128906 C 4.15625 -1.164062 3.566406 -0.476562 2.652344 -0.476562 Z M 2.652344 -0.476562 "/></g></g></g><g fill="#00ffff" fill-opacity="1"><g transform="translate(32.771065, 30.566353)"><g><path d="M 2.679688 -4.351562 C 1.429688 -4.351562 0.558594 -3.371094 0.558594 -2.121094 C 0.558594 -0.867188 1.429688 0.113281 2.75 0.113281 C 3.410156 0.113281 3.9375 -0.121094 4.355469 -0.539062 C 4.425781 -0.609375 4.417969 -0.667969 4.347656 -0.738281 L 4.171875 -0.910156 C 4.117188 -0.96875 4.0625 -0.957031 4 -0.902344 C 3.714844 -0.652344 3.347656 -0.453125 2.820312 -0.453125 C 1.914062 -0.453125 1.296875 -1.027344 1.199219 -1.832031 L 4.441406 -1.832031 C 4.660156 -1.832031 4.695312 -1.972656 4.695312 -2.265625 C 4.695312 -3.363281 3.9375 -4.351562 2.679688 -4.351562 Z M 2.679688 -3.777344 C 3.503906 -3.777344 4.082031 -3.15625 4.121094 -2.363281 L 1.199219 -2.363281 C 1.289062 -3.179688 1.871094 -3.777344 2.679688 -3.777344 Z M 2.679688 -3.777344 "/></g></g></g><g fill="#ffffff" fill-opacity="1"><g transform="translate(13.855402, 30.578922)"><g><path d="M 2.886719 -0.476562 C 1.976562 -0.476562 1.296875 -1.15625 1.296875 -2.121094 C 1.296875 -3.082031 1.976562 -3.761719 2.886719 -3.761719 C 3.445312 -3.761719 3.894531 -3.519531 4.195312 -3.117188 C 4.246094 -3.046875 4.300781 -3.042969 4.367188 -3.085938 L 4.648438 -3.253906 C 4.714844 -3.296875 4.734375 -3.363281 4.6875 -3.429688 C 4.300781 -4 3.652344 -4.351562 2.878906 -4.351562 C 1.601562 -4.351562 0.671875 -3.386719 0.671875 -2.121094 C 0.671875 -0.851562 1.601562 0.113281 2.878906 0.113281 C 3.652344 0.113281 4.300781 -0.238281 4.6875 -0.808594 C 4.734375 -0.878906 4.714844 -0.941406 4.648438 -0.984375 L 4.367188 -1.152344 C 4.300781 -1.195312 4.246094 -1.191406 4.195312 -1.121094 C 3.894531 -0.722656 3.445312 -0.476562 2.886719 -0.476562 Z M 2.886719 -0.476562 "/></g></g></g><g fill="#ffffff" fill-opacity="1"><g transform="translate(20.126498, 30.578922)"><g><path d="M 2.671875 0.113281 C 3.902344 0.113281 4.820312 -0.851562 4.820312 -2.121094 C 4.820312 -3.386719 3.902344 -4.351562 2.671875 -4.351562 C 1.4375 -4.351562 0.519531 -3.386719 0.519531 -2.121094 C 0.519531 -0.851562 1.4375 0.113281 2.671875 0.113281 Z M 2.671875 -0.476562 C 1.792969 -0.476562 1.148438 -1.15625 1.148438 -2.121094 C 1.148438 -3.082031 1.792969 -3.761719 2.671875 -3.761719 C 3.546875 -3.761719 4.195312 -3.082031 4.195312 -2.121094 C 4.195312 -1.15625 3.546875 -0.476562 2.671875 -0.476562 Z M 2.671875 -0.476562 "/></g></g></g><g fill="#ffffff" fill-opacity="1"><g transform="translate(26.397595, 30.578922)"><g><path d="M 4.625 -6.078125 L 4.234375 -6.078125 C 4.15625 -6.078125 4.105469 -6.027344 4.105469 -5.949219 L 4.105469 -3.507812 L 4.035156 -3.507812 C 3.808594 -3.96875 3.332031 -4.351562 2.550781 -4.351562 C 1.28125 -4.351562 0.5 -3.394531 0.5 -2.121094 C 0.5 -0.84375 1.324219 0.113281 2.550781 0.113281 C 3.257812 0.113281 3.769531 -0.1875 4.101562 -0.632812 L 4.140625 -0.128906 C 4.148438 -0.0507812 4.191406 0 4.269531 0 L 4.625 0 C 4.703125 0 4.753906 -0.0507812 4.753906 -0.128906 L 4.753906 -5.949219 C 4.753906 -6.027344 4.703125 -6.078125 4.625 -6.078125 Z M 2.652344 -0.476562 C 1.699219 -0.476562 1.125 -1.164062 1.125 -2.128906 C 1.125 -3.09375 1.699219 -3.761719 2.652344 -3.761719 C 3.566406 -3.761719 4.15625 -3.09375 4.15625 -2.128906 C 4.15625 -1.164062 3.566406 -0.476562 2.652344 -0.476562 Z M 2.652344 -0.476562 "/></g></g></g><g fill="#ffffff" fill-opacity="1"><g transform="translate(32.668691, 30.578922)"><g><path d="M 2.679688 -4.351562 C 1.429688 -4.351562 0.558594 -3.371094 0.558594 -2.121094 C 0.558594 -0.867188 1.429688 0.113281 2.75 0.113281 C 3.410156 0.113281 3.9375 -0.121094 4.355469 -0.539062 C 4.425781 -0.609375 4.417969 -0.667969 4.347656 -0.738281 L 4.171875 -0.910156 C 4.117188 -0.96875 4.0625 -0.957031 4 -0.902344 C 3.714844 -0.652344 3.347656 -0.453125 2.820312 -0.453125 C 1.914062 -0.453125 1.296875 -1.027344 1.199219 -1.832031 L 4.441406 -1.832031 C 4.660156 -1.832031 4.695312 -1.972656 4.695312 -2.265625 C 4.695312 -3.363281 3.9375 -4.351562 2.679688 -4.351562 Z M 2.679688 -3.777344 C 3.503906 -3.777344 4.082031 -3.15625 4.121094 -2.363281 L 1.199219 -2.363281 C 1.289062 -3.179688 1.871094 -3.777344 2.679688 -3.777344 Z M 2.679688 -3.777344 "/></g></g></g></svg>