<svg xmlns="http://www.w3.org/2000/svg" xmlns:xlink="http://www.w3.org/1999/xlink" width="70" zoomAndPan="magnify" viewBox="0 0 52.5 52.499999" height="70" preserveAspectRatio="xMidYMid meet" version="1.0"><defs><clipPath id="b3008d337d"><path d="M 4 1 L 47 1 L 47 39 L 4 39 Z M 4 1 " clip-rule="nonzero"/></clipPath><clipPath id="166a2f5d81"><path d="M 53.875 15.820312 L 11.164062 42.597656 L -6.378906 14.617188 L 36.328125 -12.160156 Z M 53.875 15.820312 " clip-rule="nonzero"/></clipPath><clipPath id="39d630780c"><path d="M 53.875 15.820312 L 11.164062 42.597656 L -6.378906 14.617188 L 36.328125 -12.160156 Z M 53.875 15.820312 " clip-rule="nonzero"/></clipPath><clipPath id="aa5a9f8dad"><path d="M 5 9 L 43 9 L 43 52 L 5 52 Z M 5 9 " clip-rule="nonzero"/></clipPath><clipPath id="f36bddea71"><path d="M 18.859375 2.714844 L 46.71875 44.722656 L 19.195312 62.980469 L -8.664062 20.96875 Z M 18.859375 2.714844 " clip-rule="nonzero"/></clipPath><clipPath id="31b88c5af6"><path d="M 18.859375 2.714844 L 46.71875 44.722656 L 19.195312 62.980469 L -8.664062 20.96875 Z M 18.859375 2.714844 " clip-rule="nonzero"/></clipPath></defs><g clip-path="url(#b3008d337d)"><g clip-path="url(#166a2f5d81)"><g clip-path="url(#39d630780c)"><path fill="#8c52ff" d="M 13.246094 33.78125 C 13.246094 33.78125 9.9375 25.871094 11.117188 18.664062 C 11.117188 18.664062 10.132812 19.9375 9.15625 22.636719 C 9.15625 22.636719 9.3125 10.960938 26.835938 8.804688 C 44.363281 6.652344 46.824219 20.238281 46.824219 20.238281 C 46.824219 20.238281 47.921875 6.328125 29.894531 4.304688 C 26.835938 3.960938 18.960938 4.617188 15.519531 7.644531 C 15.519531 7.644531 15.679688 4.710938 23.265625 1.371094 C 23.265625 1.371094 12.042969 3.070312 7.03125 14.386719 C 2.015625 25.703125 5.988281 33.492188 8.425781 38.226562 Z M 13.246094 33.78125 " fill-opacity="1" fill-rule="nonzero"/></g></g></g><g clip-path="url(#aa5a9f8dad)"><g clip-path="url(#f36bddea71)"><g clip-path="url(#31b88c5af6)"><path fill="#8c52ff" d="M 37.851562 42.871094 C 37.851562 42.871094 30.03125 46.378906 22.792969 45.386719 C 22.792969 45.386719 24.09375 46.335938 26.816406 47.242188 C 26.816406 47.242188 15.140625 47.386719 12.539062 29.921875 C 9.9375 12.460938 23.453125 9.648438 23.453125 9.648438 C 23.453125 9.648438 9.519531 8.90625 7.960938 26.980469 C 7.695312 30.046875 8.550781 37.902344 11.667969 41.265625 C 11.667969 41.265625 8.730469 41.183594 5.199219 33.683594 C 5.199219 33.683594 7.183594 44.859375 18.625 49.578125 C 30.066406 54.300781 37.75 50.132812 42.417969 47.578125 Z M 37.851562 42.871094 " fill-opacity="1" fill-rule="nonzero"/></g></g></g></svg>